0
SECTION
2
HEADER
9
$INSUNITS
70
4
0
ENDSEC
0
SECTION
2
TABLES
0
TABLE
2
LTYPE
0
LTYPE
72
65
70
64
2
CONTINUOUS
3
______
73
0
40
0
0
ENDTAB
0
TABLE
2
LAYER
0
ENDTAB
0
ENDSEC
0
SECTION
2
ENTITIES
0
LINE
8
0
10
93
20
-107
11
107
21
-107
0
LINE
8
0
10
107
20
-107
11
107
21
-93
0
LINE
8
0
10
107
20
-93
11
93
21
-93
0
LINE
8
0
10
93
20
-93
11
93
21
-107
0
LINE
8
0
10
93
20
-86.45
11
107
21
-86.45
0
LINE
8
0
10
107
20
-86.45
11
107
21
-72.45
0
LINE
8
0
10
107
20
-72.45
11
93
21
-72.45
0
LINE
8
0
10
93
20
-72.45
11
93
21
-86.45
0
LINE
8
0
10
93
20
-65.9
11
107
21
-65.9
0
LINE
8
0
10
107
20
-65.9
11
107
21
-51.9
0
LINE
8
0
10
107
20
-51.9
11
93
21
-51.9
0
LINE
8
0
10
93
20
-51.9
11
93
21
-65.9
0
LINE
8
0
10
112.9665469
20
-101.6007727
11
126.9132727
21
-102.8209531
0
LINE
8
0
10
126.9132727
20
-102.8209531
11
128.1334531
21
-88.8742273
0
LINE
8
0
10
128.1334531
20
-88.8742273
11
114.1867273
21
-87.6540469
0
LINE
8
0
10
114.1867273
20
-87.6540469
11
112.9665469
21
-101.6007727
0
LINE
8
0
10
114.7575974
20
-81.1289717
11
128.7043232
21
-82.3491521
0
LINE
8
0
10
128.7043232
20
-82.3491521
11
129.9245036
21
-68.4024263
0
LINE
8
0
10
129.9245036
20
-68.4024263
11
115.9777778
21
-67.1822459
0
LINE
8
0
10
115.9777778
20
-67.1822459
11
114.7575974
21
-81.1289717
0
LINE
8
0
10
116.5486479
20
-60.6571707
11
130.4953737
21
-61.8773511
0
LINE
8
0
10
130.4953737
20
-61.8773511
11
131.7155541
21
-47.9306253
0
LINE
8
0
10
131.7155541
20
-47.9306253
11
117.7688283
21
-46.7104449
0
LINE
8
0
10
117.7688283
20
-46.7104449
11
116.5486479
21
-60.6571707
0
LINE
8
0
10
133.8430999
20
-93.3585731
11
147.6707366
21
-95.5486556
0
LINE
8
0
10
147.6707366
20
-95.5486556
11
149.8608191
21
-81.7210189
0
LINE
8
0
10
149.8608191
20
-81.7210189
11
136.0331824
21
-79.5309364
0
LINE
8
0
10
136.0331824
20
-79.5309364
11
133.8430999
21
-93.3585731
0
LINE
8
0
10
137.0578282
20
-73.0615777
11
150.8854649
21
-75.2516602
0
LINE
8
0
10
150.8854649
20
-75.2516602
11
153.0755474
21
-61.4240235
0
LINE
8
0
10
153.0755474
20
-61.4240235
11
139.2479107
21
-59.233941
0
LINE
8
0
10
139.2479107
20
-59.233941
11
137.0578282
21
-73.0615777
0
LINE
8
0
10
140.2725565
20
-52.7645823
11
154.1001932
21
-54.9546648
0
LINE
8
0
10
154.1001932
20
-54.9546648
11
156.2902757
21
-41.1270281
0
LINE
8
0
10
156.2902757
20
-41.1270281
11
142.462639
21
-38.9369456
0
LINE
8
0
10
142.462639
20
-38.9369456
11
140.2725565
21
-52.7645823
0
LINE
8
0
10
155.0947415
20
-87.5334991
11
168.7359224
21
-90.6828138
0
LINE
8
0
10
168.7359224
20
-90.6828138
11
171.8852371
21
-77.0416329
0
LINE
8
0
10
171.8852371
20
-77.0416329
11
158.2440562
21
-73.8923182
0
LINE
8
0
10
158.2440562
20
-73.8923182
11
155.0947415
21
-87.5334991
0
LINE
8
0
10
159.7174857
20
-67.5101943
11
173.3586666
21
-70.659509
0
LINE
8
0
10
173.3586666
20
-70.659509
11
176.5079813
21
-57.0183281
0
LINE
8
0
10
176.5079813
20
-57.0183281
11
162.8668004
21
-53.8690134
0
LINE
8
0
10
162.8668004
20
-53.8690134
11
159.7174857
21
-67.5101943
0
LINE
8
0
10
164.3402299
20
-47.4868895
11
177.9814108
21
-50.6362042
0
LINE
8
0
10
177.9814108
20
-50.6362042
11
181.1307255
21
-36.9950233
0
LINE
8
0
10
181.1307255
20
-36.9950233
11
167.4895446
21
-33.8457086
0
LINE
8
0
10
167.4895446
20
-33.8457086
11
164.3402299
21
-47.4868895
0
LINE
8
0
10
174.772559
20
-91.5578415
11
188.1608256
21
-95.6510453
0
LINE
8
0
10
188.1608256
20
-95.6510453
11
192.2540294
21
-82.2627787
0
LINE
8
0
10
192.2540294
20
-82.2627787
11
178.8657628
21
-78.1695749
0
LINE
8
0
10
178.8657628
20
-78.1695749
11
174.772559
21
-91.5578415
0
LINE
8
0
10
180.7807975
20
-71.9057788
11
194.1690641
21
-75.9989826
0
LINE
8
0
10
194.1690641
20
-75.9989826
11
198.2622679
21
-62.610716
0
LINE
8
0
10
198.2622679
20
-62.610716
11
184.8740013
21
-58.5175122
0
LINE
8
0
10
184.8740013
20
-58.5175122
11
180.7807975
21
-71.9057788
0
LINE
8
0
10
186.789036
20
-52.2537161
11
200.1773026
21
-56.3469199
0
LINE
8
0
10
200.1773026
20
-56.3469199
11
204.2705064
21
-42.9586533
0
LINE
8
0
10
204.2705064
20
-42.9586533
11
190.8822398
21
-38.8654495
0
LINE
8
0
10
190.8822398
20
-38.8654495
11
186.789036
21
-52.2537161
0
LINE
8
0
10
194.2677498
20
-97.2582016
11
207.5050098
21
-101.8161558
0
LINE
8
0
10
207.5050098
20
-101.8161558
11
212.062964
21
-88.5788958
0
LINE
8
0
10
212.062964
20
-88.5788958
11
198.825704
21
-84.0209416
0
LINE
8
0
10
198.825704
20
-84.0209416
11
194.2677498
21
-97.2582016
0
LINE
8
0
10
200.9581754
20
-77.8277949
11
214.1954354
21
-82.3857491
0
LINE
8
0
10
214.1954354
20
-82.3857491
11
218.7533896
21
-69.1484891
0
LINE
8
0
10
218.7533896
20
-69.1484891
11
205.5161296
21
-64.5905349
0
LINE
8
0
10
205.5161296
20
-64.5905349
11
200.9581754
21
-77.8277949
0
LINE
8
0
10
207.648601
20
-58.3973882
11
220.885861
21
-62.9553424
0
LINE
8
0
10
220.885861
20
-62.9553424
11
225.4438152
21
-49.7180824
0
LINE
8
0
10
225.4438152
20
-49.7180824
11
212.2065552
21
-45.1601282
0
LINE
8
0
10
212.2065552
20
-45.1601282
11
207.648601
21
-58.3973882
0
LINE
8
0
10
177.5770015
20
-135.1625829
11
190.3666379
21
-140.8568959
0
LINE
8
0
10
190.3666379
20
-140.8568959
11
196.0609509
21
-128.0672595
0
LINE
8
0
10
196.0609509
20
-128.0672595
11
183.2713145
21
-122.3729465
0
LINE
8
0
10
183.2713145
20
-122.3729465
11
177.5770015
21
-135.1625829
0
LINE
8
0
10
185.9354395
20
-116.3892237
11
198.7250759
21
-122.0835367
0
LINE
8
0
10
198.7250759
20
-122.0835367
11
204.4193889
21
-109.2939003
0
LINE
8
0
10
204.4193889
20
-109.2939003
11
191.6297525
21
-103.5995873
0
LINE
8
0
10
191.6297525
20
-103.5995873
11
185.9354395
21
-116.3892237
0
LINE
8
0
10
195.6889134
20
-143.5721819
11
207.9335893
21
-150.3595166
0
LINE
8
0
10
207.9335893
20
-150.3595166
11
214.720924
21
-138.1148407
0
LINE
8
0
10
214.720924
20
-138.1148407
11
202.4762481
21
-131.327506
0
LINE
8
0
10
202.4762481
20
-131.327506
11
195.6889134
21
-143.5721819
0
LINE
8
0
10
205.6517511
20
-125.5987469
11
217.896427
21
-132.3860816
0
LINE
8
0
10
217.896427
20
-132.3860816
11
224.6837617
21
-120.1414057
0
LINE
8
0
10
224.6837617
20
-120.1414057
11
212.4390858
21
-113.354071
0
LINE
8
0
10
212.4390858
20
-113.354071
11
205.6517511
21
-125.5987469
0
LINE
8
0
10
212.9989592
20
-153.5283369
11
224.6054852
21
-161.3570375
0
LINE
8
0
10
224.6054852
20
-161.3570375
11
232.4341858
21
-149.7505115
0
LINE
8
0
10
232.4341858
20
-149.7505115
11
220.8276598
21
-141.9218109
0
LINE
8
0
10
220.8276598
20
-141.9218109
11
212.9989592
21
-153.5283369
0
LINE
8
0
10
224.4903734
20
-136.4916148
11
236.0968994
21
-144.3203154
0
LINE
8
0
10
236.0968994
20
-144.3203154
11
243.9256
21
-132.7137894
0
LINE
8
0
10
243.9256
20
-132.7137894
11
232.319074
21
-124.8850888
0
LINE
8
0
10
232.319074
20
-124.8850888
11
224.4903734
21
-136.4916148
0
ENDSEC
0
EOF